<?xml version="1.0" encoding="UTF-8"?>
<svg id="Calque_2" data-name="Calque 2" xmlns="http://www.w3.org/2000/svg" viewBox="0 0 73.35 73.38">
  <defs>
    <style>
      .cls-1 {
        fill: #0a0a0a;
      }
    </style>
  </defs>
  <g id="Calque_2-2" data-name="Calque 2">
    <g id="Calque_1-2" data-name="Calque 1-2">
      <g id="Calque_2-2" data-name="Calque 2-2">
        <g id="Calque_1-2-2" data-name="Calque 1-2">
          <path class="cls-1" d="m.04,40.66c-.05.26-.05.51,0,.77.21,1.24.49,2.46.87,3.65,2.99,9.73,11.69,9.24,16.77-8.77,1.54-5.43,3.23,0,5.43,4.37-3.11-.56-6.08,1.5-6.64,4.61-.09.54-.12,1.1-.05,1.64v1.24c.12,1.38.21,2.78.21,4.14,0,4.05-.49,7.6-2.34,8.77-.84.56-1.4,1.47-1.5,2.48-.07.94.35,1.82,1.12,2.34,1.03.72,2.1,1.38,3.2,1.96,5.64,2.99,10.03,1.54,10.24-3.98.16-3.27-1.17-8.02-4.68-14.17-.37-.61-.65-1.26-.77-1.96,0-1.92,4,0,7.79,1.33-2.1,1.89-4.68,5.61.51,9.96,4.3,3.6,8.3,7.86,7.74,10.62-.44,1.54.42,3.16,1.96,3.6.37.12.77.14,1.17.09,1.33-.19,2.64-.47,3.93-.84,9.73-2.99,9.24-11.69-8.77-16.77-5.47-1.54,0-3.25,4.44-5.45v.37c0,2.83.98,6.88,7.44,6.31,5.59-.49,11.44-.33,12.98,2.03.77,1.4,2.53,1.94,3.93,1.17.35-.19.65-.44.91-.77.7-1.05,1.36-2.15,1.92-3.27.82-1.45,1.33-3.04,1.5-4.68.49-6.01-6.29-8.44-19.57-1.03-2.08,1.15-2.81.94-2.85,0,.49-2.41,1.19-4.75,2.15-7.02,1.92,2.1,5.61,4.68,9.94-.54,3.6-4.3,7.86-8.3,10.62-7.74,1.54.44,3.16-.42,3.6-1.96.12-.37.14-.77.09-1.17-.19-1.19-.47-2.39-.8-3.55-3.02-9.73-11.69-9.24-16.79,8.77-1.54,5.47-3.25,0-5.45-4.47,2.83.14,7.27-.68,6.69-7.41-.49-5.59-.33-11.44,2.03-12.98,1.4-.77,1.94-2.53,1.17-3.93-.19-.35-.44-.65-.77-.91-1.05-.72-2.13-1.38-3.25-1.96-9-4.68-14.78,1.71-5.66,18.08,2.76,4.96-2.34,2.34-7.02.7,2.1-1.89,4.68-5.61-.51-9.96-4.26-3.6-8.28-7.86-7.72-10.62.49-1.52-.37-3.16-1.89-3.62-.4-.12-.84-.16-1.26-.12-1.24.21-2.46.49-3.65.87-9.71,3.04-9.21,11.72,8.79,16.84,5.47,1.54,0,3.25-4.47,5.45.14-2.83-.68-7.27-7.41-6.69-5.59.49-11.44.33-12.98-2.03-.77-1.4-2.53-1.94-3.93-1.17-.35.19-.65.44-.91.77-.72,1.03-1.38,2.1-1.96,3.2-4.68,9,1.71,14.78,18.08,5.66,4.96-2.76,2.34,2.34.7,7.02-1.89-2.1-5.61-4.68-9.96.51-3.6,4.3-7.86,8.33-10.62,7.76-1.59-.44-3.23.49-3.65,2.06-.05.14-.07.26-.09.4Zm29.07-3.91c.05-4.19,3.48-7.55,7.69-7.51,4.19.05,7.55,3.48,7.51,7.69-.05,4.16-3.41,7.48-7.58,7.51-4.19,0-7.6-3.39-7.6-7.6v-.09h-.02Z"/>
        </g>
      </g>
    </g>
  </g>
</svg>