<?xml version="1.0" encoding="UTF-8"?>
<svg id="Calque_2" data-name="Calque 2" xmlns="http://www.w3.org/2000/svg" viewBox="0 0 212.79 60.78">
  <defs>
    <style>
      .cls-1 {
        fill: #1d1d1b;
      }
    </style>
  </defs>
  <g id="Calque_1-2" data-name="Calque 1">
    <g>
      <path d="M69.32,34.65v1.27c0,1.53-.22,2.76-.67,3.7s-1.16,1.64-2.15,2.09c-.99,.46-2.34,.68-4.03,.68h-5.18V17.6h5.18c1.74,0,3.08,.23,4.03,.68,.95,.46,1.62,1.18,2,2.17,.38,.99,.57,2.37,.57,4.12v.06c0,2.36-.81,3.95-2.42,4.77,1.78,.95,2.67,2.7,2.67,5.24Zm-5.43-10.08c0-.72-.09-1.2-.26-1.44-.18-.24-.55-.36-1.13-.36h-.03v4.37h.03c.45,0,.78-.05,.96-.16,.19-.1,.3-.27,.36-.5s.08-.61,.08-1.15v-.78Zm-1.43,7.75v4.9h.03c.6,0,1.02-.11,1.27-.34,.25-.23,.37-.67,.37-1.33v-1.61c0-.66-.11-1.1-.34-1.3-.23-.21-.66-.31-1.3-.31h-.03Z"/>
      <path d="M75.43,42.4h-5.18V17.6h5.18v24.8Z"/>
      <path d="M76.36,17.6h5.18v19.62h3.97v5.18h-9.15V17.6Z"/>
      <path d="M86.49,17.6h5.18v19.62h3.97v5.18h-9.14V17.6Z"/>
      <path d="M96.63,17.6h9.14v5.18h-3.97v4.65h3.97v5.15h-3.97v4.65h3.97v5.18h-9.14V17.6Z"/>
      <path d="M106.77,17.6h11.35v5.18h-3.1v19.62h-5.15V22.78h-3.1v-5.18Z"/>
      <path d="M119.14,17.6h9.15v5.18h-3.97v4.65h3.97v5.15h-3.97v4.65h3.97v5.18h-9.15V17.6Z"/>
      <path d="M141.24,40.2c0,.58,.02,1.05,.06,1.41,.04,.36,.13,.63,.28,.79h-5.18c-.21-.27-.31-1-.31-2.2v-4.87c0-.6-.08-1.02-.23-1.27-.16-.25-.47-.38-.95-.4l-.53,.03v8.71h-5.18V17.6h5.18c1.69,0,3.04,.22,4.03,.65,.99,.43,1.71,1.14,2.16,2.12,.44,.98,.67,2.31,.67,3.98v2.57c0,2.5-.73,4.31-2.2,5.43,.76,.33,1.32,.82,1.67,1.46s.53,1.51,.53,2.6v3.78Zm-5.18-15.84c0-.64-.12-1.06-.37-1.27-.25-.21-.67-.31-1.27-.31h-.03v5.67h.03c.62,0,1.05-.09,1.29-.26,.24-.18,.36-.59,.36-1.26v-2.57Z"/>
      <path d="M147.38,42.4h-5.18V17.6h5.18v24.8Z"/>
      <path d="M148.31,17.6h9.15v5.18h-3.97v4.65h3.97v5.15h-3.97v4.65h3.97v5.18h-9.15V17.6Z"/>
    </g>
    <path class="cls-1" d="M182.4,60.78H30.39C13.63,60.78,0,47.15,0,30.39S13.63,0,30.39,0H182.4c16.76,0,30.39,13.63,30.39,30.39s-13.63,30.39-30.39,30.39ZM30.39,2C14.74,2,2,14.74,2,30.39s12.74,28.39,28.39,28.39H182.4c15.65,0,28.39-12.74,28.39-28.39s-12.74-28.39-28.39-28.39H30.39Z"/>
  </g>
</svg>