<?xml version="1.0" encoding="UTF-8"?>
<svg id="Calque_2" data-name="Calque 2" xmlns="http://www.w3.org/2000/svg" viewBox="0 0 156.76 156.76">
  <defs>
    <style>
      .cls-1 {
        fill: #f4c438;
      }
    </style>
  </defs>
  <g id="Calque_1-2" data-name="Calque 1">
    <path class="cls-1" d="M78.38,156.76C35.16,156.76,0,121.6,0,78.38S35.16,0,78.38,0s78.38,35.16,78.38,78.38-35.16,78.38-78.38,78.38Zm0-144.76C41.78,12,12,41.78,12,78.38s29.78,66.38,66.38,66.38,66.38-29.78,66.38-66.38S114.98,12,78.38,12Z"/>
    <path class="cls-1" d="M70.68,27.59L36.72,61.51c-2.38,2.38-2.38,6.24,0,8.62h0c2.38,2.38,6.23,2.38,8.61,0l26.34-26.34V125.79c0,3.36,2.73,6.09,6.09,6.09h0c3.36,0,6.09-2.73,6.09-6.09V43.81s26.32,26.32,26.32,26.32c2.38,2.38,6.23,2.38,8.61,0h0c2.38-2.38,2.38-6.24,0-8.62L84.82,27.59c-3.91-3.9-10.23-3.9-14.14,0Z"/>
  </g>
</svg>