<?xml version="1.0" encoding="UTF-8"?>
<svg id="Calque_2" data-name="Calque 2" xmlns="http://www.w3.org/2000/svg" viewBox="0 0 212.79 60.78">
  <defs>
    <style>
      .cls-1 {
        fill: #1d1d1b;
      }
    </style>
  </defs>
  <g id="Calque_1-2" data-name="Calque 1">
    <g>
      <path d="M29.67,42.4h-5.18V17.6h5.18v24.8Z"/>
      <path d="M30.6,17.6h5.18l3.25,10.82v-10.82h5.18v24.8h-5.18l-3.25-10.82v10.82h-5.18V17.6Z"/>
      <path d="M45.13,17.6h9.15v5.18h-3.97v5.89h3.97v5.15h-3.97v8.59h-5.18V17.6Z"/>
      <path d="M67.24,24.42v11.16c0,4.75-1.99,7.13-5.98,7.13s-5.98-2.38-5.98-7.13v-11.16c0-4.75,1.99-7.13,5.98-7.13s5.98,2.38,5.98,7.13Zm-5.18,.4c0-.7-.02-1.2-.05-1.5-.03-.3-.1-.52-.2-.65-.1-.13-.29-.2-.56-.2s-.46,.07-.56,.2c-.1,.13-.17,.35-.2,.65-.03,.3-.05,.8-.05,1.5v10.35c0,.7,.02,1.2,.05,1.5,.03,.3,.1,.52,.2,.65s.29,.2,.56,.2,.45-.07,.56-.2,.17-.35,.2-.65c.03-.3,.05-.8,.05-1.5v-10.35Z"/>
      <path d="M78.21,29.6c.6,.66,1.08,1.49,1.44,2.5,.36,1,.54,2.25,.54,3.74,0,2.29-.47,4.01-1.41,5.16s-2.43,1.72-4.48,1.72c-1.45,0-2.6-.25-3.47-.74-.87-.5-1.52-1.4-1.95-2.7-.43-1.3-.65-3.15-.65-5.55h5.18c0,1.55,.07,2.57,.22,3.07,.14,.5,.37,.74,.68,.74s.51-.12,.59-.37c.08-.25,.12-.69,.12-1.33,0-.56-.04-1.01-.12-1.35-.08-.34-.27-.7-.56-1.07-.29-.37-.75-.83-1.4-1.36l-.74-.59c-.91-.72-1.63-1.36-2.15-1.92-.53-.56-.97-1.3-1.33-2.22-.36-.92-.54-2.06-.54-3.43,0-4.4,1.93-6.6,5.8-6.6,2,0,3.48,.62,4.43,1.88,.95,1.25,1.43,3.21,1.43,5.87h-5.15c0-.97-.06-1.64-.17-2.02s-.29-.56-.54-.56-.41,.12-.5,.36c-.08,.24-.12,.59-.12,1.07,0,.54,.08,.99,.23,1.35,.16,.36,.39,.69,.71,.98,.32,.29,.81,.69,1.47,1.21,1.03,.79,1.85,1.51,2.45,2.17Z"/>
      <path d="M90.95,17.6c1.67,0,3.01,.22,4,.65s1.72,1.13,2.17,2.09c.46,.96,.68,2.27,.68,3.92v3.53c0,1.63-.23,2.93-.68,3.89-.45,.96-1.18,1.66-2.17,2.11-.99,.44-2.31,.67-3.97,.67h-.03v7.94h-5.18V17.6h5.18Zm0,5.18v6.51h.03c.58,0,1-.1,1.26-.29,.26-.2,.39-.59,.39-1.19v-3.53c0-.6-.13-1-.39-1.19-.26-.2-.68-.29-1.26-.29h-.03Z"/>
      <path d="M110.76,40.2c0,.58,.02,1.05,.06,1.41,.04,.36,.13,.63,.28,.79h-5.18c-.21-.27-.31-1-.31-2.2v-4.87c0-.6-.08-1.02-.23-1.27-.16-.25-.47-.38-.95-.4l-.53,.03v8.71h-5.18V17.6h5.18c1.69,0,3.04,.22,4.03,.65,.99,.43,1.71,1.14,2.16,2.12,.44,.98,.67,2.31,.67,3.98v2.57c0,2.5-.73,4.31-2.2,5.43,.76,.33,1.32,.82,1.67,1.46s.53,1.51,.53,2.6v3.78Zm-5.18-15.84c0-.64-.12-1.06-.37-1.27-.25-.21-.67-.31-1.27-.31h-.03v5.67h.03c.62,0,1.05-.09,1.29-.26,.24-.18,.36-.59,.36-1.26v-2.57Z"/>
      <path d="M124.15,42.4h-5.18l-.25-3.97h-1.89l-.25,3.97h-5.18l2.85-24.8h7.04l2.85,24.8Zm-6.35-18.72l-.62,9.61h1.24l-.62-9.61Z"/>
      <path d="M123.38,17.6h11.35v5.18h-3.1v19.62h-5.15V22.78h-3.1v-5.18Z"/>
      <path d="M140.92,42.4h-5.18V17.6h5.18v24.8Z"/>
      <path d="M153.82,35.58c0,3.99-1.4,6.3-4.19,6.94,.76,.08,1.44,.22,2.02,.42,.58,.2,1.23,.51,1.95,.95v5.12c-1.32-.72-2.44-1.22-3.35-1.49-.91-.27-2.23-.5-3.97-.68v-4.25c-2.96-.58-4.43-2.91-4.43-7.01v-11.16c0-4.75,2-7.13,5.98-7.13s5.98,2.38,5.98,7.13v11.16Zm-6.79-.4c0,.7,.02,1.2,.05,1.5,.03,.3,.1,.52,.2,.65,.1,.13,.29,.2,.56,.2s.45-.07,.56-.2,.17-.35,.2-.65c.03-.3,.05-.8,.05-1.5v-10.35c0-.7-.01-1.2-.05-1.5-.03-.3-.1-.52-.2-.65-.1-.13-.29-.2-.56-.2s-.46,.07-.56,.2c-.1,.13-.17,.35-.2,.65-.03,.3-.05,.8-.05,1.5v10.35Z"/>
      <path d="M161.54,17.6h5.18v17.98c0,4.75-1.99,7.13-5.98,7.13s-5.98-2.38-5.98-7.13V17.6h5.18v17.58c0,.7,.02,1.2,.05,1.5,.03,.3,.1,.52,.2,.65s.29,.2,.56,.2,.45-.07,.56-.2,.17-.35,.2-.65c.03-.3,.05-.8,.05-1.5V17.6Z"/>
      <path d="M167.64,17.6h9.15v5.18h-3.97v4.65h3.97v5.15h-3.97v4.65h3.97v5.18h-9.15V17.6Z"/>
      <path d="M187.86,29.6c.6,.66,1.08,1.49,1.44,2.5,.36,1,.54,2.25,.54,3.74,0,2.29-.47,4.01-1.41,5.16s-2.43,1.72-4.48,1.72c-1.45,0-2.6-.25-3.47-.74s-1.52-1.4-1.95-2.7c-.43-1.3-.65-3.15-.65-5.55h5.18c0,1.55,.07,2.57,.22,3.07,.14,.5,.37,.74,.68,.74s.51-.12,.59-.37c.08-.25,.12-.69,.12-1.33,0-.56-.04-1.01-.12-1.35-.08-.34-.27-.7-.56-1.07-.29-.37-.75-.83-1.39-1.36l-.74-.59c-.91-.72-1.63-1.36-2.16-1.92-.53-.56-.97-1.3-1.33-2.22-.36-.92-.54-2.06-.54-3.43,0-4.4,1.93-6.6,5.8-6.6,2,0,3.48,.62,4.43,1.88,.95,1.25,1.43,3.21,1.43,5.87h-5.15c0-.97-.06-1.64-.17-2.02-.11-.37-.29-.56-.54-.56s-.41,.12-.5,.36c-.08,.24-.12,.59-.12,1.07,0,.54,.08,.99,.23,1.35,.16,.36,.39,.69,.71,.98,.32,.29,.81,.69,1.47,1.21,1.03,.79,1.85,1.51,2.45,2.17Z"/>
    </g>
    <path class="cls-1" d="M182.4,60.78H30.39C13.63,60.78,0,47.15,0,30.39S13.63,0,30.39,0H182.4c16.76,0,30.39,13.63,30.39,30.39s-13.63,30.39-30.39,30.39ZM30.39,2C14.74,2,2,14.74,2,30.39s12.74,28.39,28.39,28.39H182.4c15.65,0,28.39-12.74,28.39-28.39s-12.74-28.39-28.39-28.39H30.39Z"/>
  </g>
</svg>