<?xml version="1.0" encoding="UTF-8"?>
<svg id="Calque_2" data-name="Calque 2" xmlns="http://www.w3.org/2000/svg" viewBox="0 0 212.79 60.78">
  <defs>
    <style>
      .cls-1 {
        fill: #1d1d1b;
      }
    </style>
  </defs>
  <g id="Calque_1-2" data-name="Calque 1">
    <g>
      <path d="M50.26,17.6h5.18v19.62h3.97v5.18h-9.15V17.6Z"/>
      <path d="M60.4,17.6h9.15v5.18h-3.97v4.65h3.97v5.15h-3.97v4.65h3.97v5.18h-9.15V17.6Z"/>
      <path d="M87.09,27.67h-5.18v-2.85c0-.7-.02-1.2-.05-1.5-.03-.3-.1-.52-.2-.65-.1-.13-.29-.2-.56-.2s-.46,.07-.56,.2c-.1,.13-.17,.35-.2,.65-.03,.3-.05,.8-.05,1.5v10.35c0,.7,.02,1.2,.05,1.5,.03,.3,.1,.52,.2,.65,.1,.13,.29,.2,.56,.2s.45-.07,.56-.2,.17-.35,.2-.65c.03-.3,.05-.8,.05-1.5v-2.85h5.18v3.26c0,4.75-1.99,7.13-5.98,7.13s-5.98-2.38-5.98-7.13v-11.16c0-4.75,1.99-7.13,5.98-7.13s5.98,2.38,5.98,7.13v3.25Z"/>
      <path d="M99.99,24.42v11.16c0,4.75-1.99,7.13-5.98,7.13s-5.98-2.38-5.98-7.13v-11.16c0-4.75,1.99-7.13,5.98-7.13s5.98,2.38,5.98,7.13Zm-5.18,.4c0-.7-.02-1.2-.05-1.5-.03-.3-.1-.52-.2-.65-.1-.13-.29-.2-.56-.2s-.46,.07-.56,.2c-.1,.13-.17,.35-.2,.65-.03,.3-.05,.8-.05,1.5v10.35c0,.7,.02,1.2,.05,1.5,.03,.3,.1,.52,.2,.65,.1,.13,.29,.2,.56,.2s.45-.07,.56-.2,.17-.35,.2-.65c.03-.3,.05-.8,.05-1.5v-10.35Z"/>
      <path d="M100.92,17.6h5.18l3.25,10.82v-10.82h5.18v24.8h-5.18l-3.25-10.82v10.82h-5.18V17.6Z"/>
      <path d="M127.42,27.67h-5.18v-2.85c0-.7-.02-1.2-.05-1.5-.03-.3-.1-.52-.2-.65-.1-.13-.29-.2-.56-.2s-.46,.07-.56,.2c-.1,.13-.17,.35-.2,.65-.03,.3-.05,.8-.05,1.5v10.35c0,.7,.02,1.2,.05,1.5,.03,.3,.1,.52,.2,.65,.1,.13,.29,.2,.56,.2s.45-.07,.56-.2,.17-.35,.2-.65c.03-.3,.05-.8,.05-1.5v-2.85h5.18v3.26c0,4.75-1.99,7.13-5.98,7.13s-5.98-2.38-5.98-7.13v-11.16c0-4.75,1.99-7.13,5.98-7.13s5.98,2.38,5.98,7.13v3.25Z"/>
      <path d="M128.35,17.6h9.15v5.18h-3.97v4.65h3.97v5.15h-3.97v4.65h3.97v5.18h-9.15V17.6Z"/>
      <path d="M143.6,17.6c1.67,0,3.01,.22,4,.65s1.72,1.13,2.17,2.09,.68,2.27,.68,3.92v3.53c0,1.63-.23,2.93-.68,3.89s-1.18,1.66-2.17,2.11c-.99,.44-2.31,.67-3.97,.67h-.03v7.94h-5.18V17.6h5.18Zm0,5.18v6.51h.03c.58,0,1-.1,1.26-.29,.26-.2,.39-.59,.39-1.19v-3.53c0-.6-.13-1-.39-1.19-.26-.2-.68-.29-1.26-.29h-.03Z"/>
      <path d="M151.63,17.6h11.35v5.18h-3.1v19.62h-5.15V22.78h-3.1v-5.18Z"/>
    </g>
    <path class="cls-1" d="M182.4,60.78H30.39C13.63,60.78,0,47.15,0,30.39S13.63,0,30.39,0H182.4c16.76,0,30.39,13.63,30.39,30.39s-13.63,30.39-30.39,30.39ZM30.39,2C14.74,2,2,14.74,2,30.39s12.74,28.39,28.39,28.39H182.4c15.65,0,28.39-12.74,28.39-28.39s-12.74-28.39-28.39-28.39H30.39Z"/>
  </g>
</svg>