<?xml version="1.0" encoding="UTF-8"?>
<svg id="Calque_2" data-name="Calque 2" xmlns="http://www.w3.org/2000/svg" viewBox="0 0 280.62 280.62">
  <g id="Calque_1-2" data-name="Calque 1">
    <g>
      <g>
        <path class="cls-1" d="M140.31,0C62.94,0,0,62.94,0,140.31s62.94,140.31,140.31,140.31,140.31-62.95,140.31-140.31S217.68,0,140.31,0Zm0,270.62c-71.85,0-130.31-58.45-130.31-130.31S68.46,10,140.31,10s130.31,58.46,130.31,130.31-58.46,130.31-130.31,130.31Z"/>
        <path class="cls-1" d="M51.1,159.7h-.01l38.54,33.08c-26.01-40.47-17.98-77.4-17.98-77.4l-20.55,44.32Z"/>
        <path class="cls-1" d="M229.55,159.7h-.01l-20.55-44.32s8.03,36.93-17.98,77.4l38.54-33.08Z"/>
        <path class="cls-1" d="M101.24,143.61c.57-.8,.91-1.25,.91-1.25-12.52-2.05-23.16-15.45-23.16-15.45,0,0-2.13,23.05,10.63,47.57l.46-3.04c1.5-10.02,5.3-19.57,11.16-27.83Z"/>
        <path class="cls-1" d="M177.99,142.77s.34,.44,.91,1.25c5.86,8.26,9.65,17.81,11.16,27.83l.46,3.04c12.77-24.51,10.63-47.57,10.63-47.57,0,0-10.63,13.4-23.16,15.45Z"/>
      </g>
      <g>
        <path class="cls-1" d="M162.72,134.65s18.95,1.61,27.3-19.91c0,0,.64,16.06-18.31,21.52h.03s33.72-6.1,25.05-34.04c0,0-35.01,2.57-40.47,34.36,0,0,17.98,18.63,20.23,33.4,0,0-7.39,12.52-24.73,20.87,0,0,15.09-1.61,22.48-10.92v8.67l-19.59,13.81-10.92-9.31,2.89-8.99,21.84-14.77-6.1-12.46h.03l-4.21-7.6,3.01,12.68-20.95,12.93-21.61-11.2,3.71-14.42-4.21,7.59-6.1,12.48,21.84,14.77,2.89,8.99-10.92,9.31-19.59-13.81v-8.67c7.39,9.31,22.48,10.92,22.48,10.92-17.34-8.35-24.73-20.87-24.73-20.87,2.25-14.77,20.23-33.4,20.23-33.4-5.46-31.79-40.47-34.36-40.47-34.36-8.67,27.94,25.05,34.04,25.05,34.04-18.95-5.46-18.31-21.52-18.31-21.52,8.35,21.52,27.3,19.91,27.3,19.91-29.22,35.65-23.44,54.92-23.44,54.92l20.55,17.02,5.57,15.09,19.75-21.83,20.9,21.83,4.42-15.09,20.55-17.02s5.78-19.27-23.44-54.92Zm4.71-10.53c.65,1.19,1.9,2.01,3.36,2.01,2.12,0,3.84-1.72,3.84-3.84,0-1.38-.74-2.58-1.83-3.26l2.73-2.59c2.28,.94,3.88,3.18,3.88,5.79,0,3.46-2.8,6.26-6.26,6.26h0c-2.74,.01-5.06-1.75-5.91-4.19l.19-.18Zm-59.95,4.39h0c-3.46-.01-6.26-2.81-6.26-6.27,0-2.62,1.61-4.86,3.88-5.79l2.73,2.59c-1.09,.68-1.83,1.88-1.83,3.26,0,2.12,1.72,3.84,3.84,3.84,1.46,0,2.71-.82,3.36-2.01l.19,.18c-.85,2.44-3.17,4.2-5.91,4.2Z"/>
        <polygon class="cls-1" points="128.8 100.93 123.67 111.21 140.31 143.65 156.96 111.21 151.82 100.93 140.31 120.52 128.8 100.93"/>
        <polygon class="cls-1" points="189.64 97.4 189.64 85.52 180.09 90.01 150.86 77.49 165.31 107.68 189.64 97.4"/>
        <polygon class="cls-1" points="90.99 85.52 90.99 97.4 115.32 107.68 129.77 77.49 100.54 90.01 90.99 85.52"/>
        <path class="cls-1" d="M225.84,118.45h-.03l-7.18-33.34c6.74-12.52-2.89-31.06-2.89-31.06-23.77,.32-30.89,10.6-30.89,10.6l-18.56-12.52-25.96,6.1-25.96-6.1-18.56,12.52s-7.13-10.28-30.89-10.6c0,0-9.64,18.53-2.89,31.06l-7.18,33.34-21.37,47.04,8.82,3.82,25.52,52.39,2.57-12.2,33.17,.28-59.18-48.45,23.44-65.52,48.82-32.44-14.45,21.2,31.47-14.13,2.57,11.88s-12.32,6.95,3.92,26.17v.49c.07-.08,.13-.16,.2-.24,.07,.08,.13,.16,.2,.24v-.49c16.24-19.22,3.92-26.17,3.92-26.17l2.57-11.88,31.47,14.13-14.45-21.2,48.82,32.44,23.44,65.52-56.88,48.45,30.86-.28,2.57,12.2,25.52-52.39,8.82-3.82-21.37-47.04ZM87.01,78.72h-.02s-8.99-5.89-8.99-5.89v11.85l-8.68-7.19v12.93s-10.38-8.13,1.05-27.22c0,0,22.05-4.21,25.61,9.59l-10.26-4.53,1.29,10.46Zm124.34,11.71h-.02v-12.94l-8.68,7.19v-11.85l-8.99,5.9,1.29-10.46-10.26,4.53c3.56-13.8,25.61-9.59,25.61-9.59,11.43,19.08,1.05,27.22,1.05,27.22Z"/>
      </g>
    </g>
  </g>
</svg>