<?xml version="1.0" encoding="UTF-8"?>
<svg id="Calque_2" data-name="Calque 2" xmlns="http://www.w3.org/2000/svg" viewBox="0 0 214.79 62.78">
  <defs>
    <style>
      .cls-1 {
        fill: #fff;
      }
    </style>
  </defs>
  <g id="Calque_1-2" data-name="Calque 1">
    <path class="cls-1" d="M183.4,0H31.39C14.08,0,0,14.08,0,31.39s14.08,31.39,31.39,31.39H183.4c17.31,0,31.39-14.08,31.39-31.39S200.71,0,183.4,0ZM31.39,4H183.4c15.1,0,27.39,12.29,27.39,27.39s-12.29,27.39-27.39,27.39H31.39c-15.1,0-27.39-12.29-27.39-27.39S16.29,4,31.39,4Z"/>
    <g>
      <path class="cls-1" d="M23.78,18.42h10.98v5.01h-3v18.99h-4.98V23.43h-3v-5.01Z"/>
      <path class="cls-1" d="M40.75,42.42h-5.01V18.42h5.01v24Z"/>
      <path class="cls-1" d="M53.23,28.38h-5.01v-2.97c0-.66-.01-1.14-.04-1.44-.03-.3-.1-.51-.21-.65-.11-.13-.29-.19-.52-.19-.26,0-.44,.07-.54,.19-.1,.13-.17,.34-.2,.63s-.04,.78-.04,1.46v10.02c0,.68,.01,1.17,.04,1.46,.03,.29,.09,.5,.2,.63,.1,.13,.28,.19,.54,.19s.44-.06,.54-.19c.1-.13,.16-.34,.19-.63,.03-.29,.04-.77,.04-1.46v-.54h-.78v-5.01h5.79v12.54h-1.89l-.81-1.71c-1.14,1.34-2.42,2.01-3.84,2.01-1.68,0-2.94-.55-3.78-1.65-.84-1.1-1.26-2.85-1.26-5.25v-10.8c0-2.38,.49-4.12,1.47-5.23,.98-1.11,2.42-1.67,4.32-1.67s3.34,.55,4.32,1.67c.98,1.11,1.47,2.85,1.47,5.23v3.36Z"/>
      <path class="cls-1" d="M65.77,40.29c0,.56,.02,1.02,.06,1.36,.04,.35,.13,.61,.27,.77h-5.01c-.2-.26-.3-.97-.3-2.13v-4.71c0-.58-.07-.99-.22-1.23-.15-.24-.46-.37-.92-.39l-.51,.03v8.43h-5.01V18.42h5.01c1.64,0,2.94,.21,3.9,.63s1.66,1.11,2.08,2.06c.43,.95,.65,2.23,.65,3.85v2.49c0,2.42-.71,4.17-2.13,5.25,.74,.32,1.28,.79,1.62,1.41,.34,.62,.51,1.46,.51,2.52v3.66Zm-5.01-15.33c0-.62-.12-1.03-.36-1.23-.24-.2-.65-.3-1.23-.3h-.03v5.49h.03c.6,0,1.01-.08,1.24-.25,.23-.17,.35-.57,.35-1.22v-2.49Z"/>
      <path class="cls-1" d="M66.7,18.42h8.85v5.01h-3.84v4.5h3.84v4.98h-3.84v4.5h3.84v5.01h-8.85V18.42Z"/>
      <path class="cls-1" d="M85.96,18.42c1.68,0,3,.23,3.96,.67,.96,.45,1.64,1.15,2.05,2.1,.41,.95,.62,2.23,.62,3.83v10.8c0,1.56-.21,2.82-.62,3.78s-1.1,1.67-2.07,2.13c-.97,.46-2.29,.69-3.95,.69h-5.01V18.42h5.01Zm0,5.01v13.98h.03c.6,0,1.01-.11,1.24-.33,.23-.22,.35-.64,.35-1.26v-10.8c0-.62-.12-1.04-.35-1.26-.23-.22-.64-.33-1.24-.33h-.03Z"/>
      <path class="cls-1" d="M100.06,18.42h5.01v17.4c0,4.6-1.93,6.9-5.79,6.9s-5.79-2.3-5.79-6.9V18.42h5.01v17.01c0,.68,.01,1.17,.04,1.46,.03,.29,.09,.5,.2,.63,.1,.13,.28,.19,.54,.19s.44-.06,.54-.19c.1-.13,.16-.34,.19-.63,.03-.29,.04-.77,.04-1.46V18.42Z"/>
      <path class="cls-1" d="M122.11,34.92v1.23c0,1.48-.21,2.68-.65,3.58-.43,.91-1.12,1.59-2.08,2.02-.96,.44-2.26,.66-3.9,.66h-5.01V18.42h5.01c1.68,0,2.98,.22,3.9,.66s1.57,1.14,1.94,2.1c.37,.96,.55,2.29,.55,3.99v.06c0,2.28-.78,3.82-2.34,4.62,1.72,.92,2.58,2.61,2.58,5.07Zm-5.25-9.75c0-.7-.08-1.17-.25-1.4-.17-.23-.54-.35-1.09-.35h-.03v4.23h.03c.44,0,.75-.05,.93-.15,.18-.1,.29-.26,.34-.48,.05-.22,.08-.59,.08-1.11v-.75Zm-1.38,7.5v4.74h.03c.58,0,.99-.11,1.23-.33s.36-.65,.36-1.29v-1.56c0-.64-.11-1.06-.33-1.26-.22-.2-.64-.3-1.26-.3h-.03Z"/>
      <path class="cls-1" d="M123.01,18.42h8.85v5.01h-3.84v4.5h3.84v4.98h-3.84v4.5h3.84v5.01h-8.85V18.42Z"/>
      <path class="cls-1" d="M132.76,18.42h5.01l3.15,10.47v-10.47h5.01v24h-5.01l-3.15-10.47v10.47h-5.01V18.42Z"/>
      <path class="cls-1" d="M158.41,28.38h-5.01v-2.97c0-.66-.01-1.14-.04-1.44-.03-.3-.1-.51-.21-.65-.11-.13-.29-.19-.52-.19-.26,0-.44,.07-.54,.19-.1,.13-.17,.34-.2,.63s-.04,.78-.04,1.46v10.02c0,.68,.01,1.17,.04,1.46,.03,.29,.09,.5,.2,.63,.1,.13,.28,.19,.54,.19s.44-.06,.54-.19c.1-.13,.16-.34,.19-.63,.03-.29,.04-.77,.04-1.46v-.54h-.78v-5.01h5.79v12.54h-1.89l-.81-1.71c-1.14,1.34-2.42,2.01-3.84,2.01-1.68,0-2.94-.55-3.78-1.65-.84-1.1-1.26-2.85-1.26-5.25v-10.8c0-2.38,.49-4.12,1.47-5.23,.98-1.11,2.42-1.67,4.32-1.67s3.34,.55,4.32,1.67c.98,1.11,1.47,2.85,1.47,5.23v3.36Z"/>
      <path class="cls-1" d="M171.7,42.42h-5.01l-.24-3.84h-1.83l-.24,3.84h-5.01l2.76-24h6.81l2.76,24Zm-6.15-18.12l-.6,9.3h1.2l-.6-9.3Z"/>
      <path class="cls-1" d="M172.36,18.42h5.01v18.99h3.84v5.01h-8.85V18.42Z"/>
      <path class="cls-1" d="M182.17,18.42h8.85v5.01h-3.84v4.5h3.84v4.98h-3.84v4.5h3.84v5.01h-8.85V18.42Z"/>
    </g>
  </g>
</svg>