<?xml version="1.0" encoding="UTF-8"?>
<svg id="Calque_2" data-name="Calque 2" xmlns="http://www.w3.org/2000/svg" viewBox="0 0 77.34 77.34">
  <defs>
    <style>
      .cls-1 {
        fill: #1d1d1b;
      }
    </style>
  </defs>
  <g id="Calque_1-2" data-name="Calque 1">
    <g>
      <g>
        <path class="cls-1" d="M13.89,44.06h0l10.71,9.19c-7.23-11.24-5-21.5-5-21.5l-5.71,12.31Z"/>
        <path class="cls-1" d="M63.47,44.06h0l-5.71-12.31s2.23,10.26-5,21.5l10.71-9.19Z"/>
        <path class="cls-1" d="M27.82,39.59c.16-.22,.25-.35,.25-.35-3.48-.57-6.43-4.29-6.43-4.29,0,0-.59,6.4,2.95,13.22l.13-.84c.42-2.78,1.47-5.44,3.1-7.73Z"/>
        <path class="cls-1" d="M49.14,39.36s.09,.12,.25,.35c1.63,2.29,2.68,4.95,3.1,7.73l.13,.84c3.55-6.81,2.95-13.22,2.95-13.22,0,0-2.95,3.72-6.43,4.29Z"/>
      </g>
      <g>
        <path class="cls-1" d="M44.9,37.1s5.27,.45,7.59-5.53c0,0,.18,4.46-5.09,5.98h0s9.37-1.69,6.96-9.46c0,0-9.73,.71-11.24,9.55,0,0,5,5.18,5.62,9.28,0,0-2.05,3.48-6.87,5.8,0,0,4.19-.45,6.25-3.03v2.41l-5.44,3.84-3.03-2.59,.8-2.5,6.07-4.1-1.69-3.46h0l-1.17-2.11,.84,3.52-5.82,3.59-6-3.11,1.03-4.01-1.17,2.11-1.69,3.47,6.07,4.1,.8,2.5-3.03,2.59-5.44-3.84v-2.41c2.05,2.59,6.25,3.03,6.25,3.03-4.82-2.32-6.87-5.8-6.87-5.8,.63-4.1,5.62-9.28,5.62-9.28-1.52-8.83-11.24-9.55-11.24-9.55-2.41,7.76,6.96,9.46,6.96,9.46-5.27-1.52-5.09-5.98-5.09-5.98,2.32,5.98,7.59,5.53,7.59,5.53-8.12,9.91-6.51,15.26-6.51,15.26l5.71,4.73,1.55,4.19,5.49-6.07,5.81,6.07,1.23-4.19,5.71-4.73s1.61-5.35-6.51-15.26Zm1.31-2.93c.18,.33,.53,.56,.93,.56,.59,0,1.07-.48,1.07-1.07,0-.38-.21-.72-.51-.91l.76-.72c.63,.26,1.08,.88,1.08,1.61,0,.96-.78,1.74-1.74,1.74h0c-.76,0-1.41-.49-1.64-1.16l.05-.05Zm-16.66,1.22h0c-.96,0-1.74-.78-1.74-1.74,0-.73,.45-1.35,1.08-1.61l.76,.72c-.3,.19-.51,.52-.51,.91,0,.59,.48,1.07,1.07,1.07,.41,0,.75-.23,.93-.56l.05,.05c-.24,.68-.88,1.17-1.64,1.17Z"/>
        <polygon class="cls-1" points="35.48 27.73 34.05 30.59 38.67 39.6 43.3 30.59 41.87 27.73 38.67 33.17 35.48 27.73"/>
        <polygon class="cls-1" points="52.38 26.75 52.38 23.45 49.73 24.7 41.61 21.22 45.62 29.61 52.38 26.75"/>
        <polygon class="cls-1" points="24.97 23.45 24.97 26.75 31.73 29.61 35.75 21.22 27.62 24.7 24.97 23.45"/>
        <path class="cls-1" d="M62.44,32.6h0l-1.99-9.26c1.87-3.48-.8-8.63-.8-8.63-6.6,.09-8.58,2.95-8.58,2.95l-5.16-3.48-7.21,1.69-7.21-1.69-5.16,3.48s-1.98-2.86-8.58-2.95c0,0-2.68,5.15-.8,8.63l-1.99,9.26-5.94,13.07,2.45,1.06,7.09,14.56,.71-3.39,9.22,.08-16.44-13.46,6.51-18.2,13.56-9.01-4.01,5.89,8.74-3.93,.71,3.3s-3.42,1.93,1.09,7.27v.14s.04-.04,.06-.07c.02,.02,.04,.04,.06,.07v-.14c4.51-5.34,1.09-7.27,1.09-7.27l.71-3.3,8.74,3.93-4.01-5.89,13.56,9.01,6.51,18.2-15.8,13.46,8.57-.08,.71,3.39,7.09-14.56,2.45-1.06-5.94-13.07ZM23.86,21.56h0s-2.5-1.64-2.5-1.64v3.29l-2.41-2v3.59s-2.88-2.26,.29-7.56c0,0,6.13-1.17,7.12,2.66l-2.85-1.26,.36,2.91Zm34.55,3.25h0v-3.6l-2.41,2v-3.29l-2.5,1.64,.36-2.91-2.85,1.26c.99-3.83,7.12-2.66,7.12-2.66,3.18,5.3,.29,7.56,.29,7.56Z"/>
      </g>
    </g>
    <path class="cls-1" d="M38.67,0C17.35,0,0,17.35,0,38.67s17.35,38.67,38.67,38.67,38.67-17.35,38.67-38.67S60,0,38.67,0Zm0,74.84C18.73,74.84,2.5,58.62,2.5,38.67S18.73,2.5,38.67,2.5s36.17,16.23,36.17,36.17-16.23,36.17-36.17,36.17Z"/>
  </g>
</svg>