<?xml version="1.0" encoding="UTF-8"?>
<svg id="Calque_2" data-name="Calque 2" xmlns="http://www.w3.org/2000/svg" viewBox="0 0 214.79 62.78">
  <defs>
    <style>
      .cls-1 {
        fill: #fff;
      }
    </style>
  </defs>
  <g id="Calque_1-2" data-name="Calque 1">
    <path class="cls-1" d="M183.4,0H31.39C14.08,0,0,14.08,0,31.39s14.08,31.39,31.39,31.39H183.4c17.31,0,31.39-14.08,31.39-31.39S200.71,0,183.4,0ZM31.39,4H183.4c15.1,0,27.39,12.29,27.39,27.39s-12.29,27.39-27.39,27.39H31.39c-15.1,0-27.39-12.29-27.39-27.39S16.29,4,31.39,4Z"/>
    <g>
      <path class="cls-1" d="M53.27,18.42h10.98v5.01h-3v18.99h-4.98V23.43h-3v-5.01Z"/>
      <path class="cls-1" d="M70.24,42.42h-5.01V18.42h5.01v24Z"/>
      <path class="cls-1" d="M82.72,28.38h-5.01v-2.97c0-.66-.01-1.14-.04-1.44-.03-.3-.1-.51-.21-.65-.11-.13-.29-.19-.52-.19-.26,0-.44,.07-.54,.19-.1,.13-.17,.34-.2,.63s-.04,.78-.04,1.46v10.02c0,.68,.01,1.17,.04,1.46,.03,.29,.09,.5,.2,.63,.1,.13,.28,.19,.54,.19s.44-.06,.54-.19c.1-.13,.16-.34,.19-.63,.03-.29,.04-.77,.04-1.46v-.54h-.78v-5.01h5.79v12.54h-1.89l-.81-1.71c-1.14,1.34-2.42,2.01-3.84,2.01-1.68,0-2.94-.55-3.78-1.65-.84-1.1-1.26-2.85-1.26-5.25v-10.8c0-2.38,.49-4.12,1.47-5.23,.98-1.11,2.42-1.67,4.32-1.67s3.34,.55,4.32,1.67c.98,1.11,1.47,2.85,1.47,5.23v3.36Z"/>
      <path class="cls-1" d="M95.26,40.29c0,.56,.02,1.02,.06,1.36,.04,.35,.13,.61,.27,.77h-5.01c-.2-.26-.3-.97-.3-2.13v-4.71c0-.58-.07-.99-.22-1.23-.15-.24-.46-.37-.92-.39l-.51,.03v8.43h-5.01V18.42h5.01c1.64,0,2.94,.21,3.9,.63s1.66,1.11,2.08,2.06c.43,.95,.65,2.23,.65,3.85v2.49c0,2.42-.71,4.17-2.13,5.25,.74,.32,1.28,.79,1.62,1.41,.34,.62,.51,1.46,.51,2.52v3.66Zm-5.01-15.33c0-.62-.12-1.03-.36-1.23-.24-.2-.65-.3-1.23-.3h-.03v5.49h.03c.6,0,1.01-.08,1.24-.25,.23-.17,.35-.57,.35-1.22v-2.49Z"/>
      <path class="cls-1" d="M96.19,18.42h8.85v5.01h-3.84v4.5h3.84v4.98h-3.84v4.5h3.84v5.01h-8.85V18.42Z"/>
      <path class="cls-1" d="M115.45,18.42c1.68,0,3,.23,3.96,.67,.96,.45,1.64,1.15,2.05,2.1,.41,.95,.62,2.23,.62,3.83v10.8c0,1.56-.21,2.82-.62,3.78s-1.1,1.67-2.07,2.13c-.97,.46-2.29,.69-3.95,.69h-5.01V18.42h5.01Zm0,5.01v13.98h.03c.6,0,1.01-.11,1.24-.33,.23-.22,.35-.64,.35-1.26v-10.8c0-.62-.12-1.04-.35-1.26-.23-.22-.64-.33-1.24-.33h-.03Z"/>
      <path class="cls-1" d="M134.56,25.02v10.8c0,4.6-1.93,6.9-5.79,6.9s-5.79-2.3-5.79-6.9v-10.8c0-4.6,1.93-6.9,5.79-6.9s5.79,2.3,5.79,6.9Zm-5.01,.39c0-.68-.01-1.17-.04-1.46s-.09-.5-.19-.63c-.1-.13-.28-.19-.54-.19s-.44,.07-.54,.19c-.1,.13-.17,.34-.2,.63s-.04,.78-.04,1.46v10.02c0,.68,.01,1.17,.04,1.46,.03,.29,.09,.5,.2,.63,.1,.13,.28,.19,.54,.19s.44-.06,.54-.19c.1-.13,.16-.34,.19-.63,.03-.29,.04-.77,.04-1.46v-10.02Z"/>
      <path class="cls-1" d="M142.03,18.42h5.01v17.4c0,4.6-1.93,6.9-5.79,6.9s-5.79-2.3-5.79-6.9V18.42h5.01v17.01c0,.68,.01,1.17,.04,1.46,.03,.29,.09,.5,.2,.63,.1,.13,.28,.19,.54,.19s.44-.06,.54-.19c.1-.13,.16-.34,.19-.63,.03-.29,.04-.77,.04-1.46V18.42Z"/>
      <path class="cls-1" d="M154.81,34.02l-1.38,8.4h-5.34l3.39-12-3.39-12h5.34l1.38,8.4,1.38-8.4h5.34l-3.39,12,3.39,12h-5.34l-1.38-8.4Z"/>
    </g>
  </g>
</svg>